<?xml version="1.0" encoding="UTF-8"?>
<svg width="2260px" height="2260px" viewBox="0 0 2260 2260" version="1.1" xmlns="http://www.w3.org/2000/svg" xmlns:xlink="http://www.w3.org/1999/xlink">
    <title>Artboard Copy</title>
    <g id="Artboard-Copy" stroke="none" stroke-width="1" fill="none" fill-rule="evenodd">
        <rect fill="#FFFFFF" x="0" y="0" width="2260" height="2260"></rect>
        <path d="M828,1593 L692.063225,1869.05426 C683.822125,1885.78991 687.311859,1905.93037 700.703072,1918.9178 L756.466714,1973 L566,1973 L670.920139,1593 L828,1593 Z M1211.66861,912 L1500.82638,1194.1279 C1526.98614,1227.09296 1516.54699,1263.02905 1469.5089,1301.93617 C1469.5089,1301.93617 1454.27218,1305.42533 1442.30209,1292.92842 C1442.30209,1292.92842 1425.64846,1312.05105 1392.3412,1350.29629 L1682.88303,1350.29629 C1687.30131,1350.29629 1690.88304,1353.87801 1690.88304,1358.29629 C1690.88304,1359.62615 1690.55152,1360.93503 1689.91846,1362.10455 C1643.78376,1447.33461 1568.50295,1493.04009 1464.07603,1499.221 L1464.07603,1608.47817 L1464.07603,1608.47817 L1282.0454,1608.47817 L1388.88232,1875.78387 L1458.73287,1884.32445 L1495.41222,1973 L872,1973 L909.466914,1884.32445 L974.665374,1875.78387 L1086.54305,1608.47817 L943.263373,1608.47817 L943.263373,1390.29629 C943.263373,1368.2049 961.171983,1350.29629 983.263373,1350.29629 L1330.91513,1350.29629 L1407.68616,1262.50939 L1392.3412,1245.33386 L1403.52268,1214.70707 L1131.70539,998.584995 L1211.66861,912 Z M981.183939,893 C981.183939,893 1031.12263,928.186491 1131,998.559472 L1030.828,1108.54333 C1017.83583,1122.80808 1014.21067,1143.27532 1021.51302,1161.13464 L1084.68996,1315.6463 L986,1315.6463 C941.81722,1315.6463 906,1351.46352 906,1395.6463 L906,1556 L681,1556 C737.63939,1327.50578 782.999375,1176.10654 817.079955,1101.80229 C865.111392,997.081638 927.108948,942.444393 981.183939,893 Z M536.985433,288 C537.891246,288 538.778554,288 539.647357,288.020138 L539.647357,288.020138 L540.936683,288.048994 L542.198251,288.090471 C543.237991,288.130294 544.248818,288.183263 545.23073,288.24938 L545.23073,288.24938 L546.395146,288.33503 C546.586902,288.350357 546.777501,288.366209 546.966944,288.382588 L546.966944,288.382588 L548.089723,288.487169 L549.184745,288.604371 C549.725316,288.666128 550.255478,288.732617 550.775231,288.803839 L550.775231,288.803839 L551.800858,288.952593 C557.702722,289.857138 562.187786,291.405873 565.256048,293.598797 C567.78605,295.407021 570.072119,299.801955 572.114257,306.783599 L572.114257,306.783599 L572.443276,307.938432 L572.768019,309.138612 C572.821786,309.342421 572.875376,309.54812 572.928787,309.755708 L572.928787,309.755708 L573.247115,311.02391 L573.561167,312.337459 C573.613153,312.560163 573.66496,312.784757 573.716589,313.011239 L573.716589,313.011239 L574.024227,314.392811 C574.12606,314.860892 574.22718,315.336532 574.327588,315.81973 L574.327588,315.81973 L574.626672,317.291996 C574.725654,317.79031 574.823924,318.296181 574.92148,318.809611 L574.92148,318.809611 L575.212012,320.372573 C575.260078,320.636846 575.307965,320.903008 575.355675,321.17106 L575.355675,321.17106 L575.639792,322.802043 L575.919633,324.478375 L576.195197,326.200054 L576.466485,327.967081 L576.733497,329.779456 L576.996232,331.637179 L577.254691,333.540249 C577.297412,333.861206 577.339954,334.184053 577.382317,334.50879 L577.382317,334.50879 L577.634362,336.479881 L577.88213,338.496321 L578.125621,340.558109 L578.364837,342.665244 L578.599775,344.817727 L578.944166,348.131478 L579.168414,350.39733 L579.388385,352.70853 L579.60408,355.065078 L579.815499,357.466973 L580.022641,359.914217 L580.225507,362.406808 L580.424097,364.944746 L712.327636,364.944746 L713.226361,363.823231 C713.524311,363.455104 713.820635,363.092689 714.115333,362.735985 L714.115333,362.735985 L714.994552,361.683008 C715.285999,361.337727 715.575821,360.998158 715.864018,360.6643 L715.864018,360.6643 L716.72373,359.679861 C717.29362,359.034991 717.857008,358.412968 718.413894,357.81379 L718.413894,357.81379 L719.244346,356.932159 C719.519537,356.643993 719.793104,356.361539 720.065044,356.084796 L720.065044,356.084796 L720.875989,355.271702 C721.682058,354.475743 722.473497,353.731188 723.250305,353.038036 L723.250305,353.038036 L724.022237,352.362018 C726.962615,349.836301 729.688012,348.065931 732.198429,347.050908 C737.785073,344.792091 742.337614,343.989443 747.278708,343.774128 L747.278708,343.774128 L748.272529,343.738638 C748.439169,343.733943 748.606347,343.729836 748.774115,343.726284 L748.774115,343.726284 L749.78822,343.711392 L750.81901,343.708301 L751.869013,343.715465 L752.940759,343.731342 L754.594678,343.768111 L758.71415,343.887334 L761.264226,343.956651 L763.285864,343.999745 L764.690308,344.021344 L766.14305,344.035436 L767.646621,344.040476 C768.470766,344.040476 769.321171,344.028185 770.19297,344.006189 L770.19297,344.006189 L771.516107,343.966242 C771.739102,343.958479 771.963281,343.95019 772.18857,343.941416 L772.18857,343.941416 L773.553003,343.883274 L774.940405,343.815429 L777.056594,343.699711 L782.094243,343.39857 L784.988851,343.231826 L787.14507,343.121203 L788.568689,343.057966 C788.804782,343.048262 789.040235,343.039003 789.274973,343.030229 L789.274973,343.030229 L790.674207,342.983732 L792.052623,342.95082 C797.064188,342.857421 801.582333,343.077131 804.797595,344.040476 C810.906181,345.870708 817.806829,350.76207 825.499537,358.714561 L825.499537,358.714561 L826.507425,359.769203 L827.524298,360.858564 C827.864752,361.227471 828.206704,361.602165 828.550154,361.982645 L828.550154,361.982645 L829.584993,363.141446 C830.104659,363.729526 830.627694,364.330626 831.154097,364.944746 L831.154097,364.944746 L928.036436,364.944746 L928.036436,427.556011 L834.817784,427.556011 C834.817784,440.190745 829.331806,448.781162 818.359851,453.327263 L818.359851,453.327263 L818.359851,622.338641 L959,711.687862 L959,867.163982 L839.529032,998 L878.196871,864.195114 C885.333058,839.501293 877.450201,812.911202 858.009737,796.100799 L858.009737,796.100799 L737.625886,692.003438 C724.105493,680.312193 717.126919,662.765239 718.923741,644.978692 L718.923741,644.978692 L738.284632,453.327263 C729.991825,453.327263 723.034829,447.139586 718.095652,440.828154 L718.095652,440.828154 L717.500986,440.05512 C717.013912,439.411096 716.548139,438.768361 716.10439,438.133358 L716.10439,438.133358 L715.582509,437.375477 L715.082051,436.627492 C715.000442,436.50379 714.919737,436.380603 714.839942,436.257984 L714.839942,436.257984 L714.372138,435.529482 L713.926452,434.817061 L713.503161,434.123196 L713.102545,433.45036 L712.724881,432.801028 L712.370447,432.177673 L712.039523,431.582769 L711.732385,431.018791 L711.316889,430.236221 L710.848745,429.324125 L710.404672,428.422904 L710,427.556011 L580.424097,427.556011 L580.024492,431.243004 L579.256656,438.207576 L578.527505,444.645567 L578.003758,449.142423 L577.498055,453.365878 L577.008802,457.325702 L576.690986,459.823948 L576.379301,462.212264 L576.073276,464.493544 L575.772439,466.670683 L575.476317,468.746577 L575.184439,470.724122 C575.13612,471.045678 575.087958,471.363256 575.039944,471.676918 L575.039944,471.676918 L574.753546,473.512366 L574.470212,475.256702 L574.18947,476.912822 L573.910847,478.483621 L573.633872,479.971994 L573.358073,481.380836 L573.082978,482.713043 C572.991344,483.144661 572.899749,483.563989 572.808114,483.97151 L572.808114,483.97151 L572.53301,485.159132 C570.834827,492.270315 569.096021,495.505543 566.818532,497.920113 L566.818532,497.920113 L566.444409,498.304954 L566.060371,498.678304 L565.665945,499.043056 L565.260659,499.402108 L564.631336,499.936329 L564.196836,500.293795 C561.136579,502.788234 557.102106,503.89827 551.970748,504.30662 L551.970748,504.30662 L551.080318,504.369877 L550.168262,504.42015 L550.168262,504.42015 L549.70408,504.440657 L548.759325,504.472889 C548.440753,504.481746 548.118519,504.488757 547.7926,504.49405 L547.7926,504.49405 L546.803766,504.504902 L545.278763,504.503525 L544.234059,504.491952 L543.166766,504.472746 L542.076747,504.446671 L540.398807,504.396353 L538.668961,504.334881 L531.22125,504.029038 L527.863685,503.900362 L525.775955,503.83045 L524.353354,503.788472 L522.928195,503.752711 L521.532773,503.730279 C521.070678,503.725023 520.611628,503.721917 520.155615,503.720753 L520.155615,503.720753 L518.796685,503.722872 C518.571713,503.724126 518.3475,503.725813 518.124043,503.727906 L518.124043,503.727906 L516.792385,503.745135 C516.571954,503.74875 516.352279,503.752719 516.133359,503.757016 L516.133359,503.757016 L514.828889,503.786523 L512.906073,503.842789 L511.023811,503.909684 L503.897817,504.198609 L502.216458,504.254938 L500.574907,504.296412 L499.502592,504.31371 C499.325341,504.315816 499.148823,504.317515 498.973037,504.318782 L498.973037,504.318782 L497.927108,504.320985 L496.898724,504.311551 C489.761349,504.201846 483.910758,503.144332 479.289943,499.196435 C471.255719,490.347211 466.33515,467.00204 463.650837,441.185421 L463.650837,441.185421 L463.38553,438.55195 L463.135437,435.904251 L462.900352,433.245132 C462.520936,428.805313 462.203198,424.329625 461.942867,419.876615 L461.942867,419.876615 L461.793522,417.207999 L461.657751,414.547636 L461.535346,411.898336 L461.426104,409.26291 C461.408983,408.824984 461.392401,408.387754 461.376355,407.951278 L461.376355,407.951278 L461.286472,405.341932 C461.272552,404.908704 461.259158,404.476347 461.246287,404.04492 L461.246287,404.04492 L461.175302,401.467977 L461.116659,398.916149 L461.070153,396.392246 L461.035579,393.899078 L461.012731,391.439456 L461,389.01619 L461,387.819069 C461,374.308509 462.281113,359.895677 464.255471,346.483119 L464.255471,346.483119 L464.610964,344.126968 C465.033822,341.391142 465.4846,338.70246 465.958166,336.077523 L465.958166,336.077523 L466.369542,333.843576 L466.791361,331.643175 L467.222906,329.478644 C467.804465,326.617548 468.410046,323.8583 469.03199,321.225685 L469.03199,321.225685 L469.501397,319.275354 C472.728342,306.115631 476.334806,296.444718 479.289943,293.598797 C480.541272,292.393716 482.46913,291.388004 485.073519,290.58166 L485.073519,290.58166 L485.711561,290.391965 C485.820067,290.360987 485.929654,290.330329 486.040325,290.299989 L486.040325,290.299989 L486.717335,290.121778 L487.420325,289.951223 L488.149293,289.788323 L488.90424,289.633079 L489.685166,289.485491 L490.49207,289.345559 L491.324953,289.213283 L492.183815,289.088662 L493.068656,288.971697 C493.218294,288.952841 493.369015,288.934304 493.520818,288.916086 L493.520818,288.916086 L494.444627,288.810604 C494.60076,288.793662 494.757976,288.777039 494.916273,288.760735 L494.916273,288.760735 L495.87905,288.666737 L496.867806,288.580395 L497.882541,288.501709 L498.923254,288.430679 L499.989946,288.367304 L501.082616,288.311585 L502.201266,288.263522 L503.345894,288.223115 L504.516501,288.190363 L505.713087,288.165268 L506.935651,288.147828 C507.141577,288.145559 507.348585,288.143609 507.556675,288.141979 L507.556675,288.141979 L508.818208,288.136022 L510.105719,288.137722 L511.419209,288.147077 L512.758678,288.164088 L514.124126,288.188754 L515.515552,288.221077 L517.651402,288.283915 L519.107775,288.335377 L520.590127,288.394494 L522.098457,288.461268 L523.632767,288.535697 C523.900857,288.516316 524.16779,288.497461 524.433567,288.479132 L524.433567,288.479132 L526.014348,288.37547 L527.567372,288.284428 L529.092639,288.206006 L530.590147,288.140206 L532.059898,288.087027 L533.501891,288.046468 C533.73991,288.04076 533.976772,288.035578 534.212478,288.030922 L534.212478,288.030922 L535.612835,288.009294 Z M1247.96681,583.712662 C1279.67478,591.829853 1289.82418,626.199669 1307.37582,644.858368 C1317.13409,655.232135 1331.67549,667.464602 1351,681.555767 C1338.58762,702.322824 1318.31232,712.706352 1290.17412,712.706352 C1290.17412,712.706352 1282.01239,738.385995 1265.68894,789.74528 L1247.96681,775.88622 L1207.74257,825.46777 L1159.52627,799.219625 L1131.6412,832.578624 L1189.20361,887.504176 L1126.13364,961 L993,865.455901 L993,732.981942 L1027.45164,748.349425 C1044.70509,756.045488 1064.99062,750.620896 1076.09983,735.340321 L1141.88163,644.858368 C1154.45388,589.207942 1189.81561,568.82604 1247.96681,583.712662 Z" id="Combined-Shape" fill="#222222"></path>
    </g>
</svg>