<?xml version="1.0" encoding="UTF-8"?>
<svg width="400px" height="400px" viewBox="0 0 400 400" version="1.1" xmlns="http://www.w3.org/2000/svg" xmlns:xlink="http://www.w3.org/1999/xlink">
    <title>Artboard</title>
    <g id="Artboard" stroke="none" stroke-width="1" fill="none" fill-rule="evenodd">
        <g id="img_coindesigner_logo" fill-rule="nonzero">
            <rect id="Rectangle" fill="#FFFFFF" x="0" y="0" width="400" height="400"></rect>
            <g id="Group" transform="translate(200, 200.5) rotate(-90) translate(-200, -200.5)translate(20, 84)" fill="#008DFF">
                <path d="M180,3.02381244e-15 C90.54,3.02381244e-15 0,27.7090769 0,80.6538462 L0,152.346154 C0,205.290923 90.54,233 180,233 C269.46,233 360,205.290923 360,152.346154 L360,80.6538462 C360,27.7090769 269.46,3.02381244e-15 180,3.02381244e-15 Z M36,152.346154 L36,130.892231 C47.4001816,137.320811 59.4718585,142.489449 72,146.306077 L72,180.019385 C48.384,170.806923 36,159.838 36,152.346154 L36,152.346154 Z M252,154.998769 L252,190.325154 C236.394,193.533385 218.394,195.881308 198,196.741615 L198,160.895462 C216.115407,160.177253 234.158832,158.206947 252,154.998769 L252,154.998769 Z M162,196.759538 C143.856197,196.067621 125.797824,193.921865 108,190.343077 L108,155.016692 C125.262,158.135308 143.496,160.160615 162,160.931308 L162,196.759538 L162,196.759538 Z M288,180.019385 L288,146.306077 C300.531033,142.497303 312.603554,137.328304 324,130.892231 L324,152.346154 C324,159.838 311.634,170.806923 288,180.019385 L288,180.019385 Z M180,125.461538 C86.814,125.461538 36,95.8705385 36,80.6538462 C36,65.4371538 86.814,35.8461538 180,35.8461538 C273.186,35.8461538 324,65.4371538 324,80.6538462 C324,95.8705385 273.186,125.461538 180,125.461538 Z" id="Shape"></path>
            </g>
        </g>
    </g>
</svg>