<?xml version="1.0" encoding="UTF-8"?>
<svg width="150px" height="150px" viewBox="0 0 150 150" version="1.1" xmlns="http://www.w3.org/2000/svg" xmlns:xlink="http://www.w3.org/1999/xlink">
    <title>Artboard Copy 6</title>
    <g id="Artboard-Copy-6" stroke="none" stroke-width="1" fill="none" fill-rule="evenodd">
        <g id="Group-2" transform="translate(27, 13)">
            <path d="M56.3492634,0.667799277 C55.7812585,1.19513685 55.4737042,1.95001638 55.4266007,2.93243789 L58.220173,23.9326166 L3.21452288,123.395416 C19.758924,118.136854 31.059987,112.047519 37.1177121,105.127411 C43.1754371,98.2073032 46.157427,88.6213311 46.0636818,76.3694949 L82.7050223,71.5271492 C83.4783597,68.8773376 82.7706431,66.4930154 80.5818726,64.3741828 C78.3931021,62.2553502 76.0929438,61.1703232 73.6813977,61.1191019 C75.7645757,59.8019209 77.4789983,57.8089888 78.8246654,55.1403057 C80.1703326,52.4716225 80.8569248,49.7029404 80.884442,46.8342593 L94.713894,38.1755301 L95.4569687,35.7130798 C92.8310784,32.5470247 90.6294443,30.6475927 88.8520665,30.0147837 C87.0746887,29.3819748 84.7130936,29.6567369 81.7672813,30.8390702 L82.7050223,23.4049486 L87.8429109,19.3711816 C89.1768933,17.5673307 89.8131523,15.5956126 89.7516877,13.4560272 C89.6594909,10.2466491 85.7903469,3.16844998 80.5818726,2.27344527 C77.1095564,1.67677547 72.8965827,2.32951302 67.9429515,4.23165792 L58.560699,0.0227313585 C57.6544136,-0.0745609344 56.9172684,0.140461705 56.3492634,0.667799277 Z M72.5293006,18.7013193 C75.4803213,18.7013193 77.8725962,16.303635 77.8725962,13.3459415 C77.8725962,10.388248 75.4803213,7.9905637 72.5293006,7.9905637 C69.5782799,7.9905637 67.186005,10.388248 67.186005,13.3459415 C67.186005,16.303635 69.5782799,18.7013193 72.5293006,18.7013193 Z" id="Combined-Shape" fill="#221C1C"></path>
            <path d="M52.6406339,25.8569996 C54.163025,21.8093634 53.5623861,17.4257769 49.1095755,15.4510195 C46.1410351,14.1345145 42.5902211,15.5064483 38.4571333,19.566821 L11.5725009,56.482036 L21.8425529,60.8680422 C6.97168859,89.4303775 -0.305880441,109.6886 0.00984583197,121.642708 C0.00984583197,121.642708 10.3658126,102.80483 31.0777462,65.1290737 C44.4380772,41.6461151 51.6257064,28.5554237 52.6406339,25.8569996 Z" id="Path-2" fill="#F65B0D"></path>
        </g>
    </g>
</svg>