<?xml version="1.0" encoding="UTF-8"?>
<svg width="149px" height="149px" viewBox="0 0 149 149" version="1.1" xmlns="http://www.w3.org/2000/svg" xmlns:xlink="http://www.w3.org/1999/xlink">
    <title>Artboard Copy 2</title>
    <g id="Artboard-Copy-2" stroke="none" stroke-width="1" fill="none" fill-rule="evenodd">
        <g id="Group" transform="translate(-19.9484, -20.9484)">
            <path d="M97.3549572,104.570362 L109.674532,111.690313 C102.319918,127.99326 101.546517,146.510374 107.516004,163.370739 C103.327701,164.154903 99.0756558,164.5479 94.8146954,164.544749 C84.9799422,164.560271 75.2549725,162.476332 66.2888055,158.431924 L97.3549572,104.570362 L97.3549572,104.570362 Z M121.605638,118.606921 L150.508158,135.596601 C142.979504,146.238295 132.656828,154.502485 120.725046,159.440546 C116.180716,146.945135 116.200099,133.20227 120.779656,120.720203 L121.605638,118.606921 L121.605638,118.606921 Z M73.0740545,90.5338033 L85.4295674,97.6822474 L54.2727924,151.784241 C42.7477107,143.459325 34.0297516,131.805957 29.2833325,118.380623 C46.1030018,115.265723 61.1851825,106.036234 71.6401189,92.4605323 L73.0740545,90.5338033 L73.0740545,90.5338033 Z M163.881164,85.4296001 C164.321146,88.586049 164.544717,91.8052088 164.544717,95.0731438 C164.560322,104.946542 162.465119,114.709725 158.398848,123.711124 L128.815294,106.674661 C137.144318,95.706631 149.251617,88.2071354 162.798669,85.6247007 L163.881164,85.4296001 L163.881164,85.4296001 Z M31.6079603,66.2958035 L61.1846023,83.3260666 C52.6250742,94.5917952 40.0881776,102.187126 26.1186472,104.570362 C25.6764622,101.371285 25.4547866,98.1457286 25.4551801,94.9163969 C25.4551801,84.7121698 27.6550962,75.023378 31.6009764,66.2888382 L31.6079603,66.2958035 Z M135.727104,38.2157207 C147.252186,46.5387401 155.970145,58.1894526 160.716564,71.6117264 C143.893975,74.7322637 128.810213,83.9640702 118.352817,97.5398688 L116.925842,99.4661588 L104.570329,92.3123645 L135.727104,38.2227 L135.727104,38.2157207 Z M95.1852013,25.4552128 C105.353189,25.4552128 115.007572,27.6433458 123.711091,31.5680042 L92.6449396,85.4296001 L80.3253642,78.3165908 C87.6836813,62.0096304 88.457114,43.4867801 82.4838926,26.6222399 C86.6724743,25.8408412 90.9244767,25.4501733 95.1852013,25.4552128 L95.1852013,25.4552128 Z M69.2832872,30.5663675 C73.8210248,43.0638881 73.7967967,56.8058619 69.2150206,69.2867103 L68.3958213,71.3930414 L39.4917388,54.3964097 C46.7296204,44.1704469 56.5530131,36.1323657 67.917955,31.1363977 L69.2832872,30.559416 L69.2832872,30.5663675 Z" id="Shape" fill="#F47C27" fill-rule="nonzero" transform="translate(95, 95) rotate(-30) translate(-95, -95)"></path>
            <path d="M40.9484041,51.6242058 C54.3768663,65.1091066 61.0910974,79.5505028 61.0910974,94.9483945 C61.0910974,110.346286 54.3768663,124.654717 40.9484041,137.873688 L50.1964124,147.948395 C58.1350962,139.805638 63.5521655,132.957523 66.4476205,127.404048 C69.3430755,121.850573 71.907888,113.38946 74.1420581,102.02071 L115.394383,102.02071 C118.279248,113.779537 121.118397,122.24065 123.911828,127.404048 C126.705259,132.567446 132.1485,139.415561 140.241553,147.948395 L149.948404,137.873688 C136.278545,124.711849 129.443615,110.317228 129.443615,94.6898254 C129.443615,79.0624229 136.278545,64.7072164 149.948404,51.6242058 L140.241553,41.9483945 C133.305687,48.1213629 127.862445,55.0055152 123.911828,62.6008515 C119.96121,70.1961878 117.493843,78.520728 116.509727,87.5744723 L74.1420581,87.5744723 C74.1377138,81.1280009 71.9475889,73.2407107 67.5716835,63.9126017 C63.195778,54.5844927 57.4040209,47.2630903 50.1964124,41.9483945 L40.9484041,51.6242058 Z" id="Path-2" fill="#171717"></path>
        </g>
    </g>
</svg>