<?xml version="1.0" encoding="UTF-8"?>
<svg width="330px" height="218px" viewBox="0 0 330 218" version="1.1" xmlns="http://www.w3.org/2000/svg" xmlns:xlink="http://www.w3.org/1999/xlink">
    <title>Artboard Copy</title>
    <g id="Artboard-Copy" stroke="none" stroke-width="1" fill="none" fill-rule="evenodd">
        <g id="Group" transform="translate(0, 1)" fill-rule="nonzero">
            <path d="M273.647997,86.6664706 C273.512119,86.6734554 273.405523,86.7828793 273.405512,86.9153881 C273.213272,98.9551326 273.322499,110.372583 273.733195,121.167741 C273.982233,127.626494 272.966418,135.401889 268.437848,140.432642 C267.515968,141.454514 266.174655,142.092092 264.413908,142.345376 C260.442398,142.921817 255.782755,142.567989 253.220279,138.991541 C250.533284,135.231577 249.524022,131.458513 249.039052,126.768384 C248.167417,118.377245 248.842443,107.968565 249.333966,90.3871316 C249.626696,79.8758276 249.480331,60.658963 248.894872,32.7365378 C248.770353,26.9000784 248.173971,18.5613434 248.318151,11.1462233 C248.350919,9.63961764 249.150464,7.5434706 250.284245,6.28578238 C252.433842,3.88394724 255.020348,2.24851586 258.043763,1.37948823 C259.51615,0.955891854 262.460922,0.580332178 266.87808,0.252809204 C276.481357,-0.45464042 286.012545,0.322680771 295.471642,2.58477278 C300.194637,3.71145181 304.528782,5.23770887 308.474078,7.16354395 C313.485433,9.6134158 318.188768,13.3013245 322.58408,18.22727 C327.639127,23.891234 330.109852,30.5377669 329.996255,38.1668687 C329.917611,43.3548326 328.947672,48.6847231 327.086436,54.1565402 C324.084865,62.9690917 318.909669,69.962799 311.560846,75.137662 C308.419464,77.3473503 304.583396,79.419479 300.052641,81.354048 C294.945166,83.5375345 289.671664,84.9699016 284.232137,85.6511494 C280.317425,86.1446174 276.789379,86.4830578 273.647997,86.6664706 Z M274.19195,22.7994907 C273.874277,22.836493 273.636296,23.1055068 273.641444,23.4217844 C273.776886,37.714887 273.77907,50.3878426 273.647997,61.4406512 C273.639259,62.0869632 273.613044,62.6524862 273.569353,63.1372202 C273.561717,63.227377 273.593309,63.316452 273.656051,63.3816725 C273.718794,63.4468929 273.806605,63.4819366 273.897036,63.4781663 C280.476898,63.2682294 286.652618,62.0454769 292.424196,59.8095868 C298.540934,57.4426874 303.362233,53.5975677 306.888095,48.2742276 C310.761301,42.4312178 308.126735,36.7912722 303.591611,32.5007212 C296.094239,25.4131241 284.415639,21.620408 274.19195,22.7994907 Z M19.676789,1.10071561 C22.5915827,3.27085798 24.1895754,7.17846635 25.094876,10.4843842 C26.8734717,16.9880507 27.9776641,24.4291827 28.4074532,32.8077801 C28.6314923,37.1976423 28.6886451,42.4686319 28.5789117,48.6207489 C28.5747866,48.7321735 28.6288242,48.8377483 28.7227283,48.9017273 C28.8166323,48.9657063 28.9378274,48.9795216 29.0452787,48.9384956 C31.5142803,47.9649738 33.7638152,46.5655362 35.7938832,44.7401828 C42.8854047,38.3649671 48.4543751,29.6911582 53.3375117,21.2742509 C54.7320404,18.8719957 55.9253912,17.015093 56.9175641,15.7035427 C59.8323578,11.8432584 62.129901,8.96325633 66.087162,6.50917011 C70.5862317,3.71705547 76.8273192,4.14973183 77.8972199,10.3559334 C78.2401368,12.3119911 78.3087202,14.0697388 78.1029701,15.6291765 C76.6970108,26.3581981 71.1897654,35.2753874 64.6400527,43.7869427 C57.7222758,52.7739913 49.5197036,61.6956877 40.0323361,70.5520319 C39.5888302,70.9666801 39.6299803,71.3294972 40.1557862,71.6404834 C46.0996791,75.1154154 51.8972607,79.1987985 57.5485312,83.8906328 C61.9973064,87.58641 65.5750727,91.6607791 68.2818301,96.1137399 C73.1786834,104.172337 77.1176555,112.377413 80.0987464,120.728968 C81.0177637,123.297984 81.5435696,125.66869 81.6761642,127.841086 C81.8864865,131.171793 80.9126025,133.867006 78.7545122,135.926726 C74.7995373,139.70363 70.7233984,139.899686 66.5260956,136.514895 C65.5567838,135.735176 63.8513438,133.580808 61.4097755,130.051792 C56.7781113,123.367844 53.7535842,119.090657 52.3361944,117.220234 C50.3975708,114.651218 47.9514303,112.014596 44.9977728,109.310369 C39.5019579,104.280506 33.4277566,100.034869 26.7751688,96.5734586 C26.6603935,96.5134389 26.524312,96.5075174 26.4046181,96.5573344 C26.2849241,96.6071514 26.1943258,96.7074178 26.1579184,96.8303602 C26.0253239,97.2495154 25.9453099,97.6641636 25.9178766,98.0743047 C24.8525481,113.614597 24.2490143,122.461927 24.1072753,124.616295 C23.7643584,129.740806 22.0291989,135.967289 18.4491465,139.557151 C16.2681951,141.754335 11.3919168,143.59321 8.36738974,141.916589 C6.78082756,141.037715 5.53261005,139.775742 4.62273721,138.130671 C3.36080303,135.85912 2.41206628,133.380245 1.77652696,130.694046 C0.116809175,123.696858 -0.184957696,117.436572 0.0893758227,109.405017 C0.27683706,103.874872 0.37971213,100.208391 0.398001031,98.4055725 C0.484873312,88.3864106 0.912376377,68.0506217 1.68051023,37.3982058 C1.94112707,26.9238323 2.09201051,20.5734053 2.13316053,18.3469249 C2.16059389,16.8370647 2.27032729,15.2077678 2.46236076,13.4590341 C3.28536131,5.88043727 8.18907295,0.438179938 15.8841281,0.0122641462 C17.3289513,-0.0733697166 18.5931716,0.289447439 19.676789,1.10071561 Z M124.727276,1.1877833 C129.026312,1.53358432 132.742768,2.95720671 135.876645,5.45865045 C143.697944,11.7145053 148.481347,19.4838009 150.226854,28.7665374 C152.476817,40.7303546 147.836269,54.297431 141.206914,64.6243069 C138.939095,68.1586628 136.568598,71.0979715 134.095425,73.4422329 C126.803135,80.3604988 119.068888,84.7863028 109.292264,90.586329 C108.810129,90.873748 108.051213,91.4620588 107.015515,92.3512615 C106.815633,92.5218514 106.700518,92.7731688 106.700789,93.0383726 C106.709717,100.219357 109.4686,105.945283 114.977437,110.216151 C116.731873,111.581391 119.309955,112.823131 122.711684,113.941371 C126.82992,115.295384 131.691447,114.790155 135.347636,112.91744 C141.186825,109.939959 148.686701,105.406373 154.666513,108.821719 C160.539184,112.183175 160.103923,119.148595 156.548178,124.005528 C153.780367,127.791375 150.313906,130.809275 146.148797,133.059227 C142.117613,135.237324 137.378852,137.026957 131.932514,138.428125 C126.954918,139.712529 122.553205,140.381676 118.727375,140.435567 C112.825687,140.520895 107.415062,139.400409 102.495501,137.074112 C95.7723979,133.901275 91.4934508,129.563044 87.9243134,122.577414 C85.7368496,118.297565 83.9042906,113.588833 82.4266365,108.451218 C75.484787,84.2990377 75.8196029,60.4095763 83.4310841,36.7828338 C84.8060614,32.5029848 86.504694,28.3241816 88.526982,24.2464241 C92.4331674,16.3738372 97.9509333,10.0214276 105.08028,5.18919511 C106.584719,4.16975574 108.432903,3.33668964 110.624831,2.68999683 C115.27654,1.30679274 119.977355,0.806054902 124.727276,1.1877833 Z M116.055544,30.6864067 C114.711817,31.7193189 113.638174,32.9633044 112.834616,34.4183632 C109.8927,39.749088 107.694076,45.9555427 106.238743,53.0377273 C105.002156,59.069036 104.075832,64.8892713 103.459771,70.4984333 C103.429446,70.7799763 103.565814,71.0532959 103.808343,71.1970697 C104.050871,71.3408435 104.354617,71.3284284 104.584752,71.1653353 C105.214206,70.7162431 106.214189,69.941559 107.584702,68.841283 C114.004239,63.6632495 119.479595,57.8340323 124.01077,51.3536314 C125.613422,49.063261 127.01072,46.5393626 128.202665,43.7819363 C129.508447,40.7640365 130.325398,35.9744678 128.93926,32.8285767 C128.336591,31.4678272 127.262948,30.3944968 125.718331,29.6085854 C122.401422,27.9289804 119.180493,28.2882542 116.055544,30.6864067 Z M190.223722,91.8030339 C189.787482,92.0531743 189.516727,92.5203507 189.513072,93.0292294 C189.486255,100.871491 192.69312,106.896917 199.133665,111.105508 C202.673507,113.414169 206.51057,114.705492 210.644855,114.979477 C211.963357,115.069308 213.538854,114.806552 215.371348,114.191209 C217.75806,113.396203 220.307908,112.203694 223.020893,110.613682 C224.352803,109.836642 226.493692,109.046128 229.44356,108.242139 C231.995643,107.550439 234.210279,107.534719 236.087468,108.194978 C240.06085,109.582869 242.007316,112.565264 241.926866,117.142163 C241.779372,124.849678 234.136532,130.657263 227.613301,133.769913 C221.892345,136.500781 215.838411,138.479313 209.451499,139.705508 C206.403302,140.289411 202.720437,140.525218 198.402902,140.412929 C194.183697,140.305131 189.984604,139.314743 185.805625,137.441763 C178.801923,134.297672 173.592724,129.049285 170.178028,121.696603 C167.22816,115.345539 164.991176,108.776635 163.467078,101.989889 C162.045778,95.6747576 161.075897,89.175472 160.557435,82.4920325 C159.431122,67.9618398 161.167521,53.2654594 165.766634,38.4028914 C167.894115,31.5308065 170.506536,25.5166092 173.603897,20.3602997 C176.830874,14.9749207 181.018793,10.3957766 186.167654,6.62286717 C191.450599,2.75563505 197.363744,1.42837943 203.960722,1.09824985 C209.015723,0.842231003 213.500864,2.01901941 217.416143,4.62861507 C223.49019,8.68449265 228.840178,15.7317484 231.421312,22.6846814 C235.182394,32.797426 233.740982,44.2306889 229.631279,53.9459306 C226.878069,60.4497077 223.899149,65.588051 220.694519,69.3609604 C216.117754,74.7463394 210.971128,79.2176861 205.254641,82.7750007 C199.855489,86.1301951 194.845183,89.1395395 190.223722,91.8030339 Z M193.830607,65.9383926 C200.5572,60.1891973 205.726173,54.0043209 209.337527,47.3837632 C210.46831,45.308663 211.391261,43.0381801 212.106381,40.5723143 C212.964524,37.6280975 212.884073,32.1843283 209.833641,30.3652469 C205.3999,27.7197188 201.484621,28.1554 198.087803,31.6722906 C196.344699,33.4823887 195.006084,35.4519373 194.07196,37.5809361 C191.229359,44.0397977 189.213616,50.9904849 188.02473,58.4329978 C187.22022,63.4725268 186.610134,67.6923463 186.194471,71.0924563 C186.172464,71.2502367 186.246329,71.4059782 186.382148,71.4881648 C186.517966,71.5703514 186.689493,71.5631027 186.817966,71.4697472 C188.847117,70.0414315 191.184664,68.1976466 193.830607,65.9383926 Z" id="Combined-Shape" fill="#C2410C"></path>
            <path d="M17.9378083,204.297524 C18.6202259,203.784208 19.1179894,203.22572 19.4310986,202.62206 C20.5390237,200.47024 21.3157755,197.675748 21.7613541,194.238584 C21.849667,193.536367 22.249082,192.823885 22.9595991,192.101136 C23.1081253,191.949194 23.2887653,191.865011 23.501519,191.848584 C25.9823078,191.672004 28.1921366,191.651471 30.1310055,191.786987 C31.9735331,191.916342 32.5816876,194.571212 32.5816876,195.907887 C32.569645,200.679673 31.3713999,205.053125 28.9869524,209.028244 C28.1279091,210.465529 26.8614223,211.863801 25.187492,213.223062 C21.1772849,216.481592 15.1860596,217.208447 10.6941459,215.311232 C6.97697702,213.738431 4.29949141,210.773518 2.66168912,206.416492 C1.20452678,202.548143 0.357526089,198.143892 0.120687033,193.203739 C0.0604737129,191.930715 0.0203314999,188.969908 0.00012805639,184.321319 C-0.00776804925,181.368725 0.349497647,177.765247 1.07205748,173.510884 C1.85483064,168.936212 3.56488891,164.889229 6.20223231,161.369934 C7.32220005,159.875158 8.83154726,158.702745 10.7302739,157.852693 C16.40839,155.314859 23.411199,156.337384 27.3190435,161.610166 C28.5514094,163.269204 29.4024243,164.65105 29.8720882,165.755706 C31.863142,170.453574 32.8747258,175.356768 32.9068703,180.465289 C32.9108538,181.151079 32.5214743,181.904627 31.7387011,182.725933 C31.301151,183.185864 30.5685556,183.387084 29.540915,183.329592 C27.909134,183.231036 24.988788,183.742298 23.1221751,182.830649 C22.3634873,182.461062 22.0563994,181.580211 21.9660794,180.693201 C21.6890981,177.941828 21.2194342,175.315703 20.5570877,172.814828 C20.2680638,171.718385 19.7703003,170.642474 19.0637974,169.587097 C18.6021619,168.8972 18.0120714,168.521453 17.2935258,168.459855 C16.4425109,168.390044 15.6958657,168.603583 15.0535903,169.100473 C14.7284384,169.350971 14.35913,169.835542 13.9456652,170.554184 C13.4820226,171.354957 12.9461241,171.909338 12.8196761,172.728591 C12.7875624,172.925704 12.5948797,173.658719 12.2416283,174.927636 C12.0409172,175.650385 11.8843626,176.385454 11.7719644,177.132842 C10.9048926,182.873768 10.8828144,189.526343 11.7057297,197.090567 C12.0670096,200.37579 13.0986645,202.786322 14.8006943,204.322163 C14.9452063,204.449465 15.1097894,204.535702 15.2944436,204.580874 C15.5312826,204.634259 15.9688327,204.667111 16.6070939,204.679431 C17.1490138,204.687644 17.5925853,204.560342 17.9378083,204.297524 Z M54.6498847,156.52568 C58.4653411,156.52568 61.654016,157.945399 64.2706768,160.797129 C65.4228189,162.055005 66.5323641,163.788168 67.5993126,165.99662 C68.5851243,168.032985 69.3883783,170.860132 70.0090746,174.47806 C71.5466163,183.414301 71.4898206,192.344396 69.8386874,201.268345 C69.648016,202.280382 69.0374618,204.089346 68.0070249,206.695237 C67.1834867,208.78077 66.2281013,210.413549 65.1408686,211.593576 C63.5587016,213.314447 62.0515862,214.502668 60.6195223,215.158239 C58.9034797,215.944923 56.925771,216.340314 54.6863962,216.344411 C52.4470214,216.344411 50.4693128,215.951069 48.7532701,215.164385 C47.3212062,214.512912 45.8120624,213.326739 44.2258386,211.605868 C43.1386059,210.429939 42.181192,208.799208 41.353597,206.713675 C40.3191032,204.107784 39.7065207,202.29882 39.5158493,201.286783 C37.8525455,192.366931 37.7835793,183.436836 39.3089505,174.496498 C39.9255899,170.87857 40.7247871,168.051423 41.706542,166.015058 C42.7694336,163.806606 43.8769505,162.071394 45.0290926,160.809421 C47.639668,157.957691 50.828343,156.531826 54.6498847,156.52568 Z M54.9480623,168.178358 C53.122485,168.166148 51.844581,169.544894 51.1143501,172.314678 C50.363835,175.141824 49.923668,178.022236 49.7938492,180.955913 C49.6964851,183.037348 49.6417177,185.116735 49.6295472,187.194073 C49.6173767,189.271411 49.6457746,191.350797 49.7147408,193.432233 C49.8080481,196.365909 50.2117035,199.250418 50.9257071,202.085759 C51.6234833,204.867835 52.88516,206.262971 54.7107372,206.27131 L54.8976436,206.268014 C56.6239369,206.19081 57.8415672,204.813157 58.5505347,202.134927 C59.296993,199.307781 59.7371599,196.429418 59.8710356,193.499838 C59.9643429,191.418403 60.0170818,189.339016 60.0292523,187.261678 C60.0414228,185.180243 60.0130249,183.098808 59.9440587,181.017372 C59.8507514,178.083696 59.447096,175.199187 58.7330924,172.363846 C58.0353163,169.58177 56.7736395,168.186635 54.9480623,168.178358 Z M102.396174,185.386152 C101.994776,185.191899 101.597391,185.136104 101.204021,185.218764 C100.979238,185.268361 100.826706,185.402684 100.746426,185.621735 L96.9471892,196.154763 C96.8871661,196.325437 96.7451038,196.45546 96.5678676,196.501938 L94.9301616,196.923507 C94.7013644,196.985503 94.53077,196.909042 94.4183784,196.694124 C93.7600848,195.458348 93.2322458,194.305232 92.8348612,193.234777 C91.6467215,189.994481 90.4846728,187.229484 89.3487149,184.939785 C89.1118898,184.45622 88.7305612,184.218571 88.2047291,184.226837 C87.5504495,184.239236 87.1932048,184.561612 87.132995,185.193966 C86.9965195,186.541334 86.9282817,187.899035 86.9282817,189.267068 C86.9162398,197.98363 86.9583866,205.576007 87.0547223,212.0442 C87.0707782,213.09399 86.6533237,213.95366 85.8023588,214.623211 C85.3206806,215.00345 84.5018276,215.191503 83.3457998,215.18737 C82.9203173,215.183237 81.5354924,215.212168 79.1913249,215.274163 C77.9710733,215.307228 76.973598,214.941454 76.1988988,214.176844 C75.6851087,213.664348 75.4262066,212.887338 75.4221926,211.845814 C75.4141647,204.53035 75.4201856,200.000548 75.4402556,198.25641 C75.4884234,194.416824 75.5285632,190.575172 75.5606751,186.731453 C75.5606751,186.326416 75.5205353,184.400424 75.4402556,180.953477 C75.3740248,178.411663 75.602822,175.646665 75.5365912,173.241241 C75.4522975,169.910018 75.3981087,166.847443 75.3740248,164.053514 C75.3539549,161.796879 75.3780388,160.525972 75.4462765,160.240793 C75.8276052,158.661975 76.9896539,157.808505 78.9324228,157.680381 C81.352856,157.519192 83.546499,157.583254 85.5133519,157.872567 C86.2157993,157.975892 86.8680719,158.207342 87.4701697,158.566916 C87.9117081,158.83143 88.3050787,159.366657 88.6502814,160.172598 C89.9989805,163.340566 90.8178335,165.367818 91.9076306,168.349799 C93.0114766,171.346247 93.6858261,173.049055 93.9306792,173.458225 C94.3521477,174.164974 94.8518889,174.379891 95.4299027,174.102978 C96.3872383,173.638012 97.2121123,171.331781 97.56735,170.352253 C98.8959791,166.715186 100.234643,163.094651 101.583342,159.490648 C101.687706,159.209602 102.107167,158.819031 102.841727,158.318934 C103.275237,158.021356 103.791034,157.845702 104.389118,157.791972 C106.733286,157.589454 109.195866,157.558456 111.776858,157.698979 C114.486298,157.847768 114.636823,159.999011 114.606718,162.454031 C114.430103,175.055642 114.442144,191.639427 114.642972,212.205388 C114.650872,213.193182 114.281585,213.988791 113.534984,214.592213 C113.061334,214.980718 112.316739,215.179104 111.301201,215.18737 C108.957033,215.212168 106.942013,215.164638 105.256139,215.04478 C103.803076,214.937321 103.072531,214.135513 103.064503,212.639356 C103.052461,210.667901 103.028377,209.188276 102.992251,208.200481 C102.932041,206.580333 102.919999,205.111041 102.956125,203.792604 C103.084573,199.527316 103.134748,194.947918 103.10665,190.05441 C103.102636,188.802102 103.04644,187.648986 102.938062,186.595063 C102.873839,185.933779 102.693209,185.530808 102.396174,185.386152 Z M145.970762,185.682267 C145.674165,186.720647 145.36109,187.595616 145.031537,188.307175 C144.652551,189.138706 144.355954,189.945415 144.141744,190.727303 C143.816311,191.902203 143.113952,193.72247 142.034666,196.188104 C141.93992,196.403227 141.779263,196.539747 141.552695,196.597664 L139.995558,196.988608 C139.77311,197.042389 139.614513,196.963786 139.519767,196.752801 C139.130482,195.896448 138.475496,194.822904 138.178899,194.016195 C136.955434,190.669385 135.645462,187.612164 134.248982,184.844531 C134.084206,184.509436 133.816444,184.319135 133.445697,184.273629 C132.576502,184.153656 132.113068,184.509436 132.055396,185.340967 C131.931814,187.256384 131.863844,188.309244 131.851486,188.499544 C131.703187,190.559756 131.925635,192.967473 131.863844,194.953219 C131.81853,196.529404 131.797933,197.625702 131.802053,198.24211 C131.851486,202.548697 131.898859,206.855283 131.944172,211.16187 C131.96065,212.427783 131.802053,213.329642 131.46838,213.867449 C130.91226,214.765171 129.999811,215.220238 128.731033,215.232649 C125.633237,215.257471 123.93398,215.27195 123.633263,215.276219 C122.393321,215.284361 121.42526,214.90376 120.729079,214.134283 C120.23475,213.59234 119.993765,212.692549 120.006123,211.43491 C120.072034,202.900339 120.129705,194.591234 120.179138,186.507593 C120.183258,186.0608 120.142063,184.304656 120.055556,181.239161 C119.987586,178.881087 120.185317,176.330645 120.148243,174.195968 C120.016421,166.393641 119.950511,162.167725 119.950511,161.518221 C119.95463,159.10223 121.184274,157.819769 123.639442,157.670838 C126.37473,157.505359 128.801063,157.606715 130.918439,157.974906 C131.536351,158.082467 132.125426,158.353438 132.685666,158.78782 C133.023458,159.04845 133.35507,159.551091 133.680503,160.295746 C135.299431,164.027294 136.807135,167.831238 138.203615,171.70758 C138.508452,172.555659 138.887437,173.248602 139.340572,173.786408 C139.569209,174.056118 139.910598,174.202483 140.2627,174.181754 C140.614802,174.161026 140.936824,173.975605 141.132516,173.680915 C141.72983,172.783192 142.244756,171.755155 142.677294,170.596803 C144.629894,165.388357 145.979001,161.834699 146.724614,159.93583 C147.23954,158.620273 148.35796,157.904577 150.079873,157.788742 C153.507222,157.548798 156.125107,157.555003 157.933528,157.807358 C160.269233,158.130042 160.263054,160.48191 160.238338,162.616587 C160.176547,168.420757 160.137412,174.880637 160.120934,181.996226 C160.120934,182.63332 160.125054,183.154578 160.133293,183.560001 C160.199203,186.302813 160.190964,191.043781 160.108576,197.782906 C160.092099,199.201887 160.118875,200.474006 160.188905,201.599262 C160.42989,205.266687 160.139472,208.754153 160.256875,212.365728 C160.305931,213.857582 159.15537,215.115082 157.667826,215.195416 C155.579285,215.302978 153.136475,215.259539 150.339396,215.065102 C149.26283,214.987761 148.424823,214.094931 148.411512,213.011096 C148.382677,210.843323 148.351781,209.227836 148.318826,208.164635 C148.257035,206.211984 148.246736,204.596497 148.28793,203.318173 C148.444468,198.399315 148.49802,193.935524 148.448587,189.926799 C148.42799,188.545051 148.337363,187.246042 148.176706,186.029773 C148.149013,185.828458 148.036275,185.649572 147.86775,185.539542 C147.373421,185.204447 146.874973,185.115502 146.372405,185.272707 C146.162315,185.334762 146.028434,185.471282 145.970762,185.682267 Z M184.151466,204.708359 C184.570637,204.58672 184.920057,204.290927 185.113816,203.893702 C185.800049,202.490683 186.297466,200.980688 186.606068,199.363719 C187.012123,197.23656 187.221241,193.486261 187.233423,188.11282 C187.253726,177.114958 187.290271,167.627091 187.343058,159.649219 C187.346457,158.731977 188.042639,157.970231 188.944945,157.896473 C191.527454,157.686637 196.59502,157.063302 198.038546,158.661756 C198.22127,158.863363 198.334966,159.192517 198.379632,159.649219 C198.635447,162.420285 198.410086,165.888746 198.416177,167.777268 C198.473025,177.244563 198.479115,185.413756 198.434449,192.284848 C198.410086,196.205897 198.152241,199.567383 197.660915,202.369307 C196.946258,206.475505 195.766668,209.571611 194.122146,211.657625 C191.734542,214.681728 188.16938,216.241096 183.426658,216.335728 C181.201477,216.380986 179.201656,216.249325 177.427196,215.940743 C176.700357,215.81731 175.526858,215.337979 173.906699,214.502751 C172.794108,213.930845 171.835819,213.112074 171.03183,212.046438 C169.744636,210.338951 168.869587,208.734325 168.406684,207.232559 C168.069659,206.142236 167.683907,204.430635 167.249428,202.097755 C166.965189,200.554845 166.806828,198.822672 166.774344,196.901235 C166.660648,190.37164 166.650497,181.052464 166.743889,168.943708 C166.74795,168.42529 166.721556,166.804206 166.664709,164.080456 C166.636285,162.595148 166.685011,160.972007 166.810888,159.211032 C166.847399,158.699508 167.217812,158.2738 167.718421,158.168025 C170.601412,157.571433 173.301677,157.439772 175.819218,157.77304 C177.573375,158.001391 177.701283,159.883741 177.719555,161.420479 C177.833251,170.52159 177.843402,179.624758 177.750009,188.729984 C177.733767,190.375754 177.782494,192.023582 177.896189,193.673467 C178.115459,196.874491 178.231184,198.518204 178.243366,198.604607 C178.328638,199.353433 178.610846,200.526044 179.089991,202.122442 C179.431077,203.278596 180.027978,204.082966 180.880693,204.535553 C181.782135,205.012826 182.872393,205.070428 184.151466,204.708359 Z M216.852759,191.130123 C216.484567,191.134252 216.150766,191.19206 215.851357,191.303547 C215.649054,191.382001 215.527672,191.528585 215.487211,191.743301 C215.228263,193.110047 215.108904,194.596538 215.129135,196.202774 C215.161503,198.519222 215.177687,199.698092 215.177687,199.739383 C215.068444,202.73714 215.054282,206.732084 215.135204,211.724216 C215.151388,212.645015 214.882325,213.481166 214.328014,214.23267 C213.931499,214.769458 213.213323,215.060563 212.173484,215.105983 C208.916401,215.233987 206.88123,215.223664 206.067971,215.075015 C205.177837,214.909849 204.542605,214.416417 204.162274,213.594717 C203.939741,213.119866 203.836566,212.374556 203.85275,211.358787 C203.893211,208.348643 203.887142,206.360462 203.834543,205.394242 C203.737438,203.653809 203.955925,201.721371 203.949856,200.445466 C203.83252,176.178502 203.81229,163.169642 203.889165,161.418886 C204.016616,158.507841 204.314002,158.229124 207.063303,157.727433 C207.726858,157.607688 208.331745,157.568461 208.877964,157.609753 C210.99001,157.770789 212.796578,157.83892 214.297668,157.814145 C214.868163,157.805887 215.236355,158.082539 215.402244,158.644103 C217.663995,166.390372 219.492816,172.551051 220.888709,177.12614 C221.234647,178.247202 221.774797,179.139096 222.940064,178.779861 C223.340624,178.655987 223.542928,178.238944 223.546974,177.528731 C223.583388,169.976531 223.619803,164.144119 223.656217,160.031494 C223.660264,159.527739 224.054755,158.953788 224.839692,158.309642 C225.264528,157.958665 225.87953,157.76666 226.684697,157.733627 C229.492667,157.618011 231.434778,157.700594 232.511032,157.981375 C234.592732,158.520228 234.550249,160.322599 234.532041,162.242649 C234.35806,180.6132 234.33783,193.231856 234.47135,200.098619 C234.58464,205.875287 234.619032,209.740164 234.574525,211.693248 C234.550249,212.717275 234.258932,213.516264 233.700575,214.090214 C233.008698,214.804556 232.14284,215.186502 231.103001,215.236051 C229.104245,215.322763 227.228893,215.269084 225.476947,215.075015 C224.752701,214.996561 224.163999,214.736425 223.710839,214.294607 C223.423569,214.013825 223.176759,213.454327 222.970409,212.616111 C221.647346,207.252356 220.781488,203.606324 220.372835,201.678015 C219.871123,199.291371 219.326928,197.146282 218.740248,195.242748 C218.491415,194.437566 218.218306,193.025399 217.690294,191.953887 C217.419208,191.400582 217.140029,191.125994 216.852759,191.130123 Z M244.405603,158.272445 L247.864957,158.266358 C250.355757,158.262011 252.378474,160.277679 252.382822,162.76848 C252.382822,162.768496 252.382822,162.768513 252.382822,162.768529 L252.465816,210.677085 C252.470136,213.167866 250.454476,215.190553 247.963694,215.1949 L244.50434,215.201036 C242.01354,215.205384 239.990823,213.189715 239.986476,210.698914 C239.986476,210.698898 239.986476,210.698882 239.986476,210.698865 L239.903481,162.79031 C239.899161,160.299528 241.914822,158.276841 244.405603,158.272494 Z M266.494309,170.173554 C266.383933,169.435528 265.783038,168.874609 265.049377,168.824748 C263.751388,168.737728 261.814608,168.623774 259.239037,168.482885 C258.067581,168.420728 257.400219,167.828165 257.236949,166.705195 C256.820613,163.779674 256.773673,161.544095 257.09613,159.998458 C257.406341,158.510835 258.37167,157.756663 259.992116,157.735944 C271.686268,157.570193 279.749722,157.549474 284.182479,157.673787 C286.533554,157.74216 288.615236,157.972141 288.71932,160.94946 C288.739729,161.579317 288.731565,163.002712 288.69483,165.219644 C288.664217,167.196235 287.72746,168.675571 285.55394,168.61963 C284.504936,168.594767 282.978369,168.66314 280.974241,168.824748 C280.329327,168.878617 279.866051,169.18733 279.584412,169.750887 C279.388489,170.144548 279.294609,170.927726 279.302773,172.100421 C279.335427,175.875421 279.325222,179.466022 279.27216,182.872224 C279.186444,188.101697 279.143585,191.690226 279.143585,193.637811 C279.135422,202.476532 279.155831,208.453961 279.204811,211.570097 C279.221138,212.746936 278.927254,213.677219 278.323158,214.360945 C277.841514,214.907927 277.084353,215.187633 276.051676,215.200064 C275.141451,215.208352 273.418961,215.233215 270.884208,215.274653 C269.776019,215.2933 268.080061,215.156554 267.363717,214.261494 C266.955545,213.755951 266.747376,213.27527 266.739213,212.819452 C266.720845,211.091489 266.5188,209.525133 266.641252,207.822032 C266.84942,204.86336 266.647374,201.028275 266.671865,198.548212 C266.753499,189.887674 266.745336,181.227136 266.647374,172.566598 C266.639211,171.584518 266.588189,170.786837 266.494309,170.173554 Z M311.959628,176.105934 C312.175491,176.132601 312.386992,176.034118 312.506791,175.851155 C313.058006,175.026748 313.513974,174.069773 313.874696,172.980231 C315.244628,168.837483 316.365297,164.970228 317.236703,161.378466 C317.443409,160.541631 317.864926,159.669582 318.501255,158.76232 C318.963303,158.103624 319.73541,157.755633 320.817575,157.718348 C324.02354,157.610637 325.863625,157.614779 326.337833,157.730776 C327.205186,157.946199 327.752348,158.613182 327.979319,159.731723 C328.06038,160.137713 327.957027,160.750839 327.66926,161.571103 C327.401759,162.347869 327.225451,163.25513 326.939711,163.994611 C323.478404,173.046515 320.205564,182.166774 317.121191,191.355388 C316.942857,191.877375 316.851663,192.447002 316.84761,193.064272 C316.807079,199.009115 316.811132,204.951886 316.859769,210.892587 C316.878008,212.837607 316.69562,214.51542 314.737996,214.950408 C314.685306,214.962836 314.008447,215.024978 312.707417,215.136832 C310.158047,215.36054 308.255138,215.31497 306.998692,215.000121 C304.834362,214.465707 305.089704,212.533115 305.022829,210.699949 C304.860707,205.973074 304.832335,200.084158 304.937715,193.033201 C304.945821,192.511215 304.737089,191.649523 304.311518,190.448127 C303.853523,189.147304 303.559677,188.302183 303.429979,187.912765 C299.231017,175.194529 296.58032,167.47659 295.47789,164.758948 C294.626749,162.652361 292.200997,158.091195 296.578294,157.780489 C300.262519,157.523639 302.637607,157.531924 303.70356,157.805346 C305.024855,158.145051 305.894235,159.257379 306.3117,161.142329 C306.603519,162.459723 306.956135,163.758474 307.369546,165.038583 C307.973451,166.923533 308.356465,168.197428 308.518587,168.860268 C309.126545,171.379059 309.839882,173.502217 310.658599,175.229743 C310.901782,175.743443 311.335458,176.035507 311.959628,176.105934 Z" id="Combined-Shape" fill="#333333"></path>
        </g>
    </g>
</svg>