<?xml version="1.0" encoding="UTF-8"?>
<svg width="2142px" height="570px" viewBox="0 0 2142 570" version="1.1" xmlns="http://www.w3.org/2000/svg" xmlns:xlink="http://www.w3.org/1999/xlink">
    <title>Artboard Copy</title>
    <g id="Artboard-Copy" stroke="none" stroke-width="1" fill="none" fill-rule="evenodd">
        <g id="logotype" fill-rule="nonzero">
            <g id="HWM" transform="translate(50.000000, 47.000000)" fill="currentColor">
                <path d="M1781.15758,0.341642229 L1781.15758,466 L1591.18409,466 L1591.18409,0.341642229 L1781.15758,0.341642229 Z M1875.46097,0 C1932.86303,0 1974.20619,12.7546432 1999.49043,38.2639296 C2022.26675,61.7142522 2033.76879,98.2234732 2033.99655,147.791593 L2034,149.297654 L2034,465.658358 L1845.05155,465.658358 L1845.05155,0 L1875.46097,0 Z M1526.94845,0 L1526.94845,465.658358 L1338,465.658358 L1338,149.297654 C1338,125.154936 1340.73343,103.859238 1346.20029,85.4105572 C1362.21137,29.0395894 1411.48714,0.572250733 1494.02762,0.00854105572 L1496.53903,0 L1526.94845,0 Z" id="M"></path>
                <path d="M1085.46097,465.658358 C1142.86303,465.658358 1184.20619,452.903715 1209.49043,427.394428 C1232.49681,403.707234 1244,366.695992 1244,316.360704 L1244,316.360704 L1244,0 L1055.05155,0 L1055.05155,465.658358 L1085.46097,465.658358 Z M736.948454,465.658358 L736.948454,0 L548,0 L548,316.360704 C548,340.503421 550.733432,361.79912 556.200295,380.247801 C572.373098,437.188172 622.486009,465.658358 706.539028,465.658358 L706.539028,465.658358 L736.948454,465.658358 Z M991.157585,466 L991.157585,0.341642229 L801.184094,0.341642229 L801.184094,466 L991.157585,466 Z" id="W"></path>
                <path d="M444,0 L444,465 L254.104615,465 L254.104615,0 L444,0 Z M189.895385,0 L189.895385,465 L0,465 L0,0 L189.895385,0 Z" id="H"></path>
            </g>
        </g>
    </g>
</svg>