<?xml version="1.0" encoding="UTF-8"?>
<svg width="452px" height="124px" viewBox="0 0 452 124" version="1.1" xmlns="http://www.w3.org/2000/svg" xmlns:xlink="http://www.w3.org/1999/xlink">
    <title>Artboard Copy 2</title>
    <g id="Artboard-Copy-2" stroke="none" stroke-width="1" fill="none" fill-rule="evenodd">
        <g id="Group-3" transform="translate(0.543, 0)">
            <g id="Group-2" transform="translate(0, -0)">
                <path d="M56.3492634,0.667799277 C55.7812585,1.19513685 55.4737042,1.95001638 55.4266007,2.93243789 L58.220173,23.9326166 L3.21452288,123.395416 C19.758924,118.136854 31.059987,112.047519 37.1177121,105.127411 C43.1754371,98.2073032 46.157427,88.6213311 46.0636818,76.3694949 L82.7050223,71.5271492 C83.4783597,68.8773376 82.7706431,66.4930154 80.5818726,64.3741828 C78.3931021,62.2553502 76.0929438,61.1703232 73.6813977,61.1191019 C75.7645757,59.8019209 77.4789983,57.8089888 78.8246654,55.1403057 C80.1703326,52.4716225 80.8569248,49.7029404 80.884442,46.8342593 L94.713894,38.1755301 L95.4569687,35.7130798 C92.8310784,32.5470247 90.6294443,30.6475927 88.8520665,30.0147837 C87.0746887,29.3819748 84.7130936,29.6567369 81.7672813,30.8390702 L82.7050223,23.4049486 L87.8429109,19.3711816 C89.1768933,17.5673307 89.8131523,15.5956126 89.7516877,13.4560272 C89.6594909,10.2466491 85.7903469,3.16844998 80.5818726,2.27344527 C77.1095564,1.67677547 72.8965827,2.32951302 67.9429515,4.23165792 L58.560699,0.0227313585 C57.6544136,-0.0745609344 56.9172684,0.140461705 56.3492634,0.667799277 Z M72.5293006,18.7013193 C75.4803213,18.7013193 77.8725962,16.303635 77.8725962,13.3459415 C77.8725962,10.388248 75.4803213,7.9905637 72.5293006,7.9905637 C69.5782799,7.9905637 67.186005,10.388248 67.186005,13.3459415 C67.186005,16.303635 69.5782799,18.7013193 72.5293006,18.7013193 Z" id="Combined-Shape" fill="#221C1C"></path>
                <path d="M52.6406339,25.8569996 C54.163025,21.8093634 53.5623861,17.4257769 49.1095755,15.4510195 C46.1410351,14.1345145 42.5902211,15.5064483 38.4571333,19.566821 L11.5725009,56.482036 L21.8425529,60.8680422 C6.97168859,89.4303775 -0.305880441,109.6886 0.00984583197,121.642708 C0.00984583197,121.642708 10.3658126,102.80483 31.0777462,65.1290737 C44.4380772,41.6461151 51.6257064,28.5554237 52.6406339,25.8569996 Z" id="Path-2" fill="#F65B0D"></path>
            </g>
            <path d="M128.161487,72.2075472 L103.998801,72.2075472 C103.030254,72.2075472 102.41609,71.9910377 102.156307,71.5580189 C101.896524,71.125 101.960561,70.4245283 102.348417,69.4566038 L105.930983,60.5160377 C106.318839,59.5481132 106.816173,58.8476415 107.422985,58.4146226 C108.029796,57.9816038 108.817475,57.7650943 109.786022,57.7650943 L130.354891,57.7650943 C131.017581,57.7650943 131.601355,57.5485849 132.106215,57.115566 C132.611074,56.6825472 132.985985,56.1603774 133.230947,55.5490566 C133.577976,54.6830189 133.667472,54.0462264 133.499435,53.6386792 C133.331398,53.2311321 132.926241,53.0018868 132.283965,52.9509434 L121.45736,51.3462264 C118.093165,50.8367925 115.695268,49.6650943 114.263668,47.8311321 C112.832067,45.9971698 112.973633,42.940566 114.688365,38.6613208 L117.903488,30.6377358 C119.638634,26.3075472 122.372457,22.9834906 126.104958,20.665566 C129.837458,18.3476415 134.176051,17.1886792 139.120736,17.1886792 L160.530711,17.1886792 C161.499258,17.1886792 162.113422,17.4051887 162.373205,17.8382075 C162.632987,18.2712264 162.568951,18.9716981 162.181094,19.9396226 L158.537288,29.0330189 C158.149432,30.0009434 157.652098,30.7014151 157.045287,31.134434 C156.438475,31.5674528 155.650796,31.7839623 154.682249,31.7839623 L136.866091,31.7839623 C136.203402,31.7839623 135.606883,32.0004717 135.076536,32.4334906 C134.546188,32.8665094 134.148327,33.4141509 133.882951,34.0764151 C133.617576,34.7386792 133.571444,35.2990566 133.744556,35.7575472 C133.917668,36.2160377 134.325362,36.4707547 134.967638,36.5216981 L145.748399,38.05 C149.112593,38.559434 151.523235,39.7311321 152.980323,41.5650943 C154.437412,43.3990566 154.30859,46.4556604 152.593858,50.7349057 L149.378735,58.7584906 C147.643589,63.0886792 144.897022,66.4127358 141.139033,68.7306604 C137.381044,71.0485849 133.055196,72.2075472 128.161487,72.2075472 Z M162.738446,72.2075472 L150.920212,72.2075472 C149.954421,72.2075472 149.342049,71.9910377 149.083098,71.5580189 C148.824147,71.125 148.888151,70.4245283 149.27511,69.4566038 L169.071115,19.9396226 C169.458074,18.9716981 169.954143,18.2712264 170.55932,17.8382075 C171.164498,17.4051887 171.949983,17.1886792 172.915774,17.1886792 L184.734008,17.1886792 C185.699799,17.1886792 186.312171,17.4051887 186.571122,17.8382075 C186.830073,18.2712264 186.766069,18.9716981 186.37911,19.9396226 L179.749892,36.5216981 L192.483087,36.5216981 L199.112305,19.9396226 C199.499264,18.9716981 199.995332,18.2712264 200.60051,17.8382075 C201.205687,17.4051887 201.991172,17.1886792 202.956963,17.1886792 L214.775197,17.1886792 C215.740989,17.1886792 216.35336,17.4051887 216.612311,17.8382075 C216.871262,18.2712264 216.807259,18.9716981 216.4203,19.9396226 L196.624294,69.4566038 C196.237335,70.4245283 195.741267,71.125 195.136089,71.5580189 C194.530911,71.9910377 193.745427,72.2075472 192.779635,72.2075472 L180.961401,72.2075472 C179.99561,72.2075472 179.383239,71.9910377 179.124287,71.5580189 C178.865336,71.125 178.92934,70.4245283 179.316299,69.4566038 L186.098264,52.4924528 L173.365069,52.4924528 L166.583105,69.4566038 C166.196146,70.4245283 165.700077,71.125 165.0949,71.5580189 C164.489722,71.9910377 163.704237,72.2075472 162.738446,72.2075472 Z M203.29909,72.2075472 C202.328942,72.2075472 201.713532,71.9910377 201.45286,71.5580189 C201.192188,71.125 201.255588,70.4245283 201.643058,69.4566038 L205.283239,60.3632075 C205.67071,59.395283 206.168123,58.6948113 206.775478,58.2617925 C207.382834,57.8287736 208.171586,57.6122642 209.141734,57.6122642 L216.724209,57.6122642 L227.002368,31.9367925 L219.419893,31.9367925 C218.449745,31.9367925 217.834335,31.720283 217.573663,31.2872642 C217.312991,30.8542453 217.376391,30.1537736 217.763861,29.1858491 L221.465222,19.9396226 C221.852692,18.9716981 222.350105,18.2712264 222.957461,17.8382075 C223.564816,17.4051887 224.353568,17.1886792 225.323717,17.1886792 L257.951335,17.1886792 C258.921483,17.1886792 259.536893,17.4051887 259.797565,17.8382075 C260.058237,18.2712264 259.994837,18.9716981 259.607367,19.9396226 L255.906006,29.1858491 C255.518536,30.1537736 255.021123,30.8542453 254.413767,31.2872642 C253.806412,31.720283 253.01766,31.9367925 252.047511,31.9367925 L244.618218,31.9367925 L234.340059,57.6122642 L241.769352,57.6122642 C242.739501,57.6122642 243.354911,57.8287736 243.615582,58.2617925 C243.876254,58.6948113 243.812855,59.395283 243.425385,60.3632075 L239.785203,69.4566038 C239.397733,70.4245283 238.90032,71.125 238.292964,71.5580189 C237.685609,71.9910377 236.896857,72.2075472 235.926708,72.2075472 L203.29909,72.2075472 Z M258.352456,72.2075472 L246.484667,72.2075472 C245.514826,72.2075472 244.899707,71.9910377 244.639309,71.5580189 C244.378911,71.125 244.4426,70.4245283 244.830375,69.4566038 L264.668136,19.9396226 C265.055911,18.9716981 265.553476,18.2712264 266.16083,17.8382075 C266.768185,17.4051887 267.556783,17.1886792 268.526623,17.1886792 L291.955937,17.1886792 C298.897956,17.1886792 303.094022,18.5641509 304.544137,21.3150943 C305.994252,24.0660377 305.831509,27.6575472 304.055907,32.0896226 L300.137337,41.8707547 C298.361735,46.3028302 295.646778,49.8943396 291.992468,52.645283 C288.338157,55.3962264 283.039992,56.7716981 276.097974,56.7716981 L267.29284,56.7716981 L262.210944,69.4566038 C261.823169,70.4245283 261.325604,71.125 260.718249,71.5580189 C260.110895,71.9910377 259.322297,72.2075472 258.352456,72.2075472 Z M277.186875,31.4528302 L272.536799,43 L279.4686,43 C280.957654,43 282.087217,42.6176434 282.857289,41.8529302 C283.627361,41.0882169 284.207434,40.2215419 284.597506,39.2529052 L286.229652,35.199925 C286.619725,34.2312883 286.737677,33.3646133 286.583509,32.5999 C286.429341,31.8351868 285.60773,31.4528302 284.118676,31.4528302 L277.186875,31.4528302 Z M305.145095,72.2075472 C304.174946,72.2075472 303.559536,71.9910377 303.298865,71.5580189 C303.038193,71.125 303.101592,70.4245283 303.489062,69.4566038 L307.129244,60.3632075 C307.516714,59.395283 308.014127,58.6948113 308.621483,58.2617925 C309.228838,57.8287736 310.01759,57.6122642 310.987739,57.6122642 L318.570213,57.6122642 L328.848372,31.9367925 L321.265898,31.9367925 C320.295749,31.9367925 319.680339,31.720283 319.419668,31.2872642 C319.158996,30.8542453 319.222395,30.1537736 319.609865,29.1858491 L323.311226,19.9396226 C323.698696,18.9716981 324.196109,18.2712264 324.803465,17.8382075 C325.410821,17.4051887 326.199573,17.1886792 327.169721,17.1886792 L359.797339,17.1886792 C360.767487,17.1886792 361.382897,17.4051887 361.643569,17.8382075 C361.904241,18.2712264 361.840842,18.9716981 361.453371,19.9396226 L357.752011,29.1858491 C357.36454,30.1537736 356.867127,30.8542453 356.259772,31.2872642 C355.652416,31.720283 354.863664,31.9367925 353.893516,31.9367925 L346.464222,31.9367925 L336.186063,57.6122642 L343.615357,57.6122642 C344.585505,57.6122642 345.200915,57.8287736 345.461587,58.2617925 C345.722259,58.6948113 345.658859,59.395283 345.271389,60.3632075 L341.631208,69.4566038 C341.243737,70.4245283 340.746324,71.125 340.138969,71.5580189 C339.531613,71.9910377 338.742861,72.2075472 337.772713,72.2075472 L305.145095,72.2075472 Z M371.588828,72.2075472 L359.208473,72.2075472 C358.240462,72.2075472 357.626525,71.9910377 357.366662,71.5580189 C357.106799,71.125 357.170438,70.4245283 357.557579,69.4566038 L372.564395,31.9367925 L361.330369,31.9367925 C360.362357,31.9367925 359.74842,31.720283 359.488557,31.2872642 C359.228694,30.8542453 359.292333,30.1537736 359.679475,29.1858491 L363.377692,19.9396226 C363.764833,18.9716981 364.26153,18.2712264 364.867782,17.8382075 C365.474035,17.4051887 366.261167,17.1886792 367.229178,17.1886792 L407.579965,17.1886792 C408.547977,17.1886792 409.161914,17.4051887 409.421777,17.8382075 C409.68164,18.2712264 409.618,18.9716981 409.230859,19.9396226 L405.532642,29.1858491 C405.145501,30.1537736 404.648804,30.8542453 404.042551,31.2872642 C403.436299,31.720283 402.649167,31.9367925 401.681156,31.9367925 L390.44713,31.9367925 L375.440314,69.4566038 C375.053173,70.4245283 374.556476,71.125 373.950224,71.5580189 C373.343971,71.9910377 372.556839,72.2075472 371.588828,72.2075472 Z M409.679516,55.6122642 L418.957675,31.9367925 L425.309136,17.1886792 L442.033304,17.1886792 L436.573525,31.9367925 L427.295366,55.6122642 L409.679516,55.6122642 Z M407.679516,59.6122642 L425.295366,59.6122642 L420.205076,72.2075472 L402.807331,72.2075472 L407.679516,59.6122642 Z" id="Combined-Shape" fill="#F65B0D" fill-rule="nonzero"></path>
        </g>
    </g>
</svg>