<?xml version="1.0" encoding="UTF-8"?>
<svg width="150px" height="150px" viewBox="0 0 150 150" version="1.1" xmlns="http://www.w3.org/2000/svg" xmlns:xlink="http://www.w3.org/1999/xlink">
    <title>Artboard Copy</title>
    <g id="Artboard-Copy" stroke="none" stroke-width="1" fill="none" fill-rule="evenodd">
        <rect fill="#FFFFFF" x="0" y="0" width="150" height="150"></rect>
        <g id="Group-2" transform="translate(24, 9)" fill="#CCCCCC">
            <path d="M61.0273183,0.714366121 C60.417702,1.27847589 60.0876168,2.08599453 60.0370626,3.13692205 L63.0352881,25.601481 L4,132 C21.7564211,126.374749 33.8853844,119.860794 40.38689,112.458134 C46.8883956,105.055475 50.088842,94.8010559 49.9882291,81.6948771 L89.3138636,76.5148659 C90.1438546,73.6802781 89.3842917,71.1296929 87.0351749,68.8631103 C84.6860581,66.5965277 82.2173934,65.4358398 79.6291808,65.3810467 C81.8649695,63.9720164 83.7049883,61.8401136 85.1492371,58.9853383 C86.593486,56.130563 87.330377,53.1688157 87.3599102,50.1000964 L102.202489,40.8375784 L103,38.203417 C100.181741,34.8165872 97.8188178,32.7847044 95.9112317,32.1077686 C94.0036457,31.4308327 91.4690435,31.7247545 88.3074251,32.989534 L89.3138636,25.0370177 L94.8281468,20.7219689 C96.259855,18.7923323 96.9427254,16.6831227 96.876758,14.3943402 C96.777807,10.9611664 92.6252148,3.3893917 87.0351749,2.4319767 C83.3084816,1.79370004 78.7868713,2.49195415 73.4703439,4.52673904 L63.4007605,0.024316457 C62.4280819,-0.0797602024 61.6369345,0.150256352 61.0273183,0.714366121 Z M78.3926826,20.0053959 C81.559891,20.0053959 84.1274207,17.4405168 84.1274207,14.276578 C84.1274207,11.1126392 81.559891,8.54776007 78.3926826,8.54776007 C75.2254742,8.54776007 72.6579445,11.1126392 72.6579445,14.276578 C72.6579445,17.4405168 75.2254742,20.0053959 78.3926826,20.0053959 Z" id="Combined-Shape"></path>
            <path d="M56.1964658,27.6372124 C57.8216932,23.3116473 57.1804816,18.627064 52.4268873,16.5167108 C49.2578244,15.1098086 45.4671558,16.5759456 41.0548813,20.9151218 L12.3542139,60.3651019 L23.3179996,65.0522711 C7.44262047,95.5758252 -0.326542416,117.225068 0.0105109099,130 C0.0105109099,130 11.0660148,109.868628 33.1770227,69.6058843 C47.4398331,44.5104799 55.1129808,30.5209226 56.1964658,27.6372124 Z" id="Path-2"></path>
        </g>
    </g>
</svg>